<svg width="52" height="64" viewBox="0 0 52 64" fill="none" xmlns="http://www.w3.org/2000/svg">
<g id="file-medical-solid 1" clip-path="url(#clip0_262_532)" filter="url(#filter0_d_262_532)">
<path id="Vector" d="M15.3333 1C12.3917 1 10 3.46641 10 6.5V39.5C10 42.5336 12.3917 45 15.3333 45H36.6667C39.6083 45 42 42.5336 42 39.5V14.75H31.3333C29.8583 14.75 28.6667 13.5211 28.6667 12V1H15.3333ZM31.3333 1V12H42L31.3333 1ZM23.3333 21.625C23.3333 20.8687 23.9333 20.25 24.6667 20.25H27.3333C28.0667 20.25 28.6667 20.8687 28.6667 21.625V25.75H32.6667C33.4 25.75 34 26.3687 34 27.125V29.875C34 30.6313 33.4 31.25 32.6667 31.25H28.6667V35.375C28.6667 36.1312 28.0667 36.75 27.3333 36.75H24.6667C23.9333 36.75 23.3333 36.1312 23.3333 35.375V31.25H19.3333C18.6 31.25 18 30.6313 18 29.875V27.125C18 26.3687 18.6 25.75 19.3333 25.75H23.3333V21.625Z" fill="#DEFFD2"/>
</g>
<defs>
<filter id="filter0_d_262_532" x="0" y="0" width="52" height="64" filterUnits="userSpaceOnUse" color-interpolation-filters="sRGB">
<feFlood flood-opacity="0" result="BackgroundImageFix"/>
<feColorMatrix in="SourceAlpha" type="matrix" values="0 0 0 0 0 0 0 0 0 0 0 0 0 0 0 0 0 0 127 0" result="hardAlpha"/>
<feOffset dy="9"/>
<feGaussianBlur stdDeviation="5"/>
<feComposite in2="hardAlpha" operator="out"/>
<feColorMatrix type="matrix" values="0 0 0 0 0 0 0 0 0 0 0 0 0 0 0 0 0 0 0.25 0"/>
<feBlend mode="normal" in2="BackgroundImageFix" result="effect1_dropShadow_262_532"/>
<feBlend mode="normal" in="SourceGraphic" in2="effect1_dropShadow_262_532" result="shape"/>
</filter>
<clipPath id="clip0_262_532">
<rect width="32" height="44" fill="white" transform="translate(10 1)"/>
</clipPath>
</defs>
</svg>
